<?xml version="1.0" standalone="no"?>
<!DOCTYPE svg PUBLIC "-//W3C//DTD SVG 20010904//EN"
 "http://www.w3.org/TR/2001/REC-SVG-20010904/DTD/svg10.dtd">
<svg version="1.0" xmlns="http://www.w3.org/2000/svg"
 width="300.000000pt" height="300.000000pt" viewBox="0 0 300.000000 300.000000"
 preserveAspectRatio="xMidYMid meet">
<metadata>
Created by potrace 1.15, written by Peter Selinger 2001-2017
</metadata>
<g transform="translate(0.000000,300.000000) scale(0.100000,-0.100000)"
fill="#000000" stroke="none">
<path d="M470 1760 c-56 -15 -68 -16 -87 -4 -32 20 -57 -6 -81 -86 -63 -203
-92 -305 -92 -324 0 -53 41 -58 158 -21 83 26 132 56 132 81 0 22 -32 17 -102
-16 -34 -16 -75 -30 -90 -30 -24 0 -28 4 -28 29 0 63 12 74 126 120 114 45
145 64 129 80 -9 9 -81 -8 -197 -46 -22 -7 -22 0 0 60 27 70 46 85 147 108
112 26 138 36 133 52 -7 19 -76 17 -148 -3z"/>
<path d="M1006 1587 c-93 -53 -98 -114 -13 -154 26 -13 47 -29 47 -37 0 -18
-51 -36 -101 -36 -31 0 -39 -4 -39 -18 0 -25 19 -42 48 -42 42 0 122 41 137
71 27 51 20 67 -40 96 -30 15 -55 33 -55 40 0 20 57 44 97 41 29 -2 38 1 41
15 10 49 -57 62 -122 24z"/>
<path d="M1227 1603 c-12 -20 -38 -178 -33 -199 7 -28 44 -64 66 -64 8 0 32
14 53 31 21 17 40 29 42 27 3 -2 -5 -23 -16 -46 -24 -48 -103 -122 -130 -122
-11 0 -19 -4 -19 -10 0 -5 23 -10 52 -10 49 0 55 3 94 46 41 44 92 161 123
280 24 92 -29 103 -63 14 -27 -70 -59 -116 -97 -136 -53 -27 -61 2 -33 105 9
33 14 66 11 75 -6 16 -42 22 -50 9z"/>
<path d="M725 1588 c-67 -36 -135 -139 -135 -204 0 -60 58 -82 115 -44 39 26
43 25 47 -7 2 -19 9 -29 24 -31 19 -3 24 9 53 133 26 108 30 139 21 150 -15
18 -95 20 -125 3z"/>
</g>
</svg>
