<svg id="svg" version="1.1" xmlns="http://www.w3.org/2000/svg" xmlns:xlink="http://www.w3.org/1999/xlink" width="400" height="75.11737089201878" viewBox="0, 0, 400,75.11737089201878"><g id="svgg"><path id="path0" d="M220.833 0.500 C 220.833 0.987,220.813 1.000,220.020 1.000 C 219.000 1.000,218.801 1.229,218.835 2.366 C 218.850 2.852,218.855 4.459,218.848 5.936 L 218.833 8.623 218.153 8.714 C 217.313 8.827,217.370 8.763,217.168 9.827 C 216.935 11.056,216.952 11.999,217.208 12.003 C 217.353 12.004,217.361 12.042,217.232 12.128 C 217.120 12.203,217.038 12.953,217.022 14.061 C 216.991 16.180,217.024 16.094,216.189 16.227 C 215.254 16.377,215.231 16.514,215.178 22.292 L 215.167 23.500 214.532 23.500 C 213.380 23.500,213.344 23.591,213.294 26.583 L 213.250 29.250 212.545 29.344 C 211.665 29.462,211.701 29.420,211.486 30.580 C 211.344 31.353,211.352 31.576,211.529 31.688 C 211.650 31.765,211.671 31.829,211.576 31.831 C 211.480 31.832,211.395 32.152,211.387 32.542 C 211.379 32.931,211.364 33.644,211.353 34.125 L 211.333 35.000 210.782 35.000 C 209.597 35.000,209.504 35.397,209.501 40.458 L 209.500 42.333 208.847 42.333 C 207.626 42.333,207.667 42.234,207.667 45.228 C 207.667 47.784,207.649 47.931,207.316 48.139 C 207.098 48.275,207.010 48.286,207.083 48.168 C 207.165 48.035,207.006 47.994,206.558 48.031 C 205.945 48.081,205.914 48.112,205.864 48.725 C 205.823 49.217,205.862 49.338,206.031 49.242 C 206.207 49.142,206.209 49.162,206.042 49.342 C 205.884 49.512,205.833 50.902,205.833 55.090 L 205.833 60.613 206.258 60.807 C 206.491 60.913,206.904 61.000,207.175 61.000 C 207.645 61.000,207.667 61.032,207.667 61.737 C 207.667 62.542,208.200 62.900,209.291 62.828 C 209.543 62.812,210.102 62.806,210.533 62.816 L 211.316 62.833 211.366 63.708 L 211.417 64.583 217.833 64.583 L 224.250 64.583 224.300 63.708 L 224.351 62.833 226.134 62.817 C 227.114 62.809,228.367 62.790,228.917 62.776 L 229.917 62.750 229.967 61.875 L 230.017 61.000 231.384 60.979 C 232.135 60.967,233.299 60.972,233.970 60.990 C 235.467 61.029,235.667 60.891,235.667 59.813 L 235.667 59.000 238.327 59.000 C 241.306 59.000,241.333 58.989,241.333 57.761 L 241.333 57.167 242.292 57.152 C 246.433 57.089,246.629 57.045,246.772 56.152 C 246.907 55.305,246.909 55.304,248.664 55.318 C 250.606 55.333,250.674 55.301,250.640 54.398 C 250.606 53.481,250.650 53.441,251.648 53.476 L 252.465 53.505 252.477 52.564 C 252.490 51.420,252.461 51.452,253.492 51.475 C 254.544 51.499,254.511 51.625,254.458 47.717 C 254.428 45.492,254.359 44.625,254.200 44.467 C 254.031 44.299,252.860 44.250,248.978 44.250 C 243.382 44.250,243.500 44.224,243.500 45.449 C 243.500 46.074,243.493 46.076,241.199 46.010 C 239.701 45.967,239.500 46.107,239.500 47.187 L 239.500 48.000 237.667 48.000 L 235.833 48.000 235.833 48.917 L 235.833 49.833 234.792 49.857 C 234.219 49.870,233.300 49.865,232.750 49.845 C 230.683 49.772,230.358 49.901,230.233 50.843 L 230.124 51.667 229.020 51.692 C 228.413 51.706,227.631 51.706,227.281 51.691 C 226.898 51.676,226.687 51.731,226.748 51.831 C 226.807 51.926,226.740 51.954,226.590 51.896 C 226.374 51.813,226.334 51.929,226.358 52.565 C 226.396 53.551,226.632 53.464,223.750 53.517 C 222.226 53.545,221.202 53.632,221.128 53.740 C 221.046 53.857,221.004 53.847,221.003 53.708 C 220.996 53.203,219.088 53.582,218.950 54.116 C 218.844 54.524,218.768 51.753,218.812 49.064 L 218.833 47.711 219.524 47.618 C 220.554 47.480,220.634 47.133,220.657 42.691 C 220.670 40.133,220.637 40.242,221.430 40.113 C 222.448 39.948,222.489 39.794,222.495 36.125 L 222.500 32.833 223.153 32.833 C 224.375 32.833,224.333 32.937,224.333 29.899 L 224.333 27.167 225.010 27.167 C 225.382 27.167,225.644 27.099,225.593 27.016 C 225.542 26.932,225.642 26.902,225.817 26.947 C 226.251 27.061,226.356 26.648,226.321 24.967 C 226.253 21.700,226.280 21.500,226.792 21.496 C 227.862 21.488,228.020 21.135,228.104 18.572 C 228.196 15.776,228.159 15.905,228.920 15.782 C 230.029 15.602,229.993 15.880,229.990 7.542 L 229.988 0.000 225.411 0.000 L 220.833 0.000 220.833 0.500 M341.079 1.174 C 341.023 1.265,340.990 1.506,341.007 1.711 C 341.023 1.916,341.029 2.702,341.018 3.458 L 341.000 4.833 340.511 4.833 C 339.444 4.833,339.167 5.075,339.167 6.006 C 339.167 6.635,339.220 6.823,339.375 6.735 C 339.542 6.641,339.542 6.663,339.375 6.842 C 339.227 7.002,339.167 7.824,339.167 9.700 L 339.167 12.333 338.490 12.333 C 338.118 12.333,337.856 12.401,337.907 12.484 C 337.958 12.568,337.858 12.598,337.683 12.553 C 337.249 12.439,337.144 12.852,337.179 14.533 C 337.248 17.835,337.224 18.000,336.685 18.000 C 335.430 18.000,335.380 18.226,335.342 24.168 C 335.334 25.255,335.287 25.449,334.983 25.639 C 334.765 25.775,334.676 25.786,334.749 25.668 C 334.831 25.535,334.673 25.494,334.225 25.531 C 333.612 25.581,333.581 25.612,333.531 26.225 C 333.490 26.720,333.528 26.837,333.697 26.735 C 333.873 26.629,333.876 26.653,333.714 26.853 C 333.587 27.010,333.493 27.846,333.464 29.091 L 333.417 31.078 332.787 31.180 C 331.750 31.348,331.445 32.247,331.520 34.917 C 331.535 35.467,331.537 36.498,331.524 37.208 L 331.500 38.500 330.917 38.500 C 329.800 38.500,329.670 38.823,329.677 41.584 C 329.684 44.331,329.683 44.333,328.913 44.333 C 328.034 44.333,327.950 44.653,327.886 48.250 C 327.820 51.942,327.843 51.833,327.108 51.833 C 326.000 51.833,325.990 51.897,326.040 58.622 L 326.083 64.583 330.583 64.583 L 335.083 64.583 335.167 62.752 L 335.250 60.921 335.880 60.819 C 336.915 60.652,337.203 59.805,337.150 57.083 C 337.087 53.869,337.143 53.333,337.542 53.331 C 338.755 53.324,338.870 53.077,338.935 50.333 C 338.960 49.279,338.985 48.285,338.991 48.125 C 338.998 47.886,339.158 47.833,339.875 47.829 C 341.779 47.820,342.651 47.391,342.661 46.458 C 342.667 45.937,342.545 45.964,344.917 45.961 L 346.583 45.959 346.636 46.768 C 346.696 47.705,346.829 47.827,347.792 47.831 C 348.450 47.833,348.501 47.865,348.509 48.292 C 348.604 53.115,348.606 53.126,349.532 53.275 C 350.385 53.411,350.318 52.955,350.371 58.950 C 350.406 62.943,350.467 64.201,350.633 64.367 C 350.873 64.606,358.085 64.759,359.872 64.563 C 361.548 64.378,361.410 65.069,361.462 56.555 C 361.516 47.583,361.557 47.973,360.578 48.024 C 359.617 48.073,359.687 48.270,359.632 45.376 C 359.577 42.544,359.561 42.504,358.431 42.376 L 357.667 42.290 357.667 41.395 L 357.667 40.500 356.750 40.500 L 355.833 40.500 355.815 39.875 C 355.805 39.531,355.810 39.081,355.827 38.875 C 355.850 38.594,355.768 38.500,355.502 38.500 C 355.276 38.500,355.190 38.570,355.266 38.692 C 355.340 38.812,355.312 38.840,355.192 38.766 C 354.882 38.574,354.970 38.377,355.417 38.265 C 355.791 38.171,355.833 38.077,355.833 37.330 L 355.833 36.500 356.750 36.500 L 357.667 36.500 357.667 35.592 L 357.667 34.683 358.625 34.633 L 359.583 34.583 359.634 33.708 L 359.684 32.833 360.425 32.833 C 360.906 32.833,361.168 32.760,361.169 32.625 C 361.171 32.466,361.202 32.464,361.298 32.616 C 361.690 33.232,363.318 32.304,363.328 31.458 C 363.333 31.063,363.401 31.000,363.825 31.000 C 365.090 31.000,365.336 30.603,365.315 28.593 C 365.300 27.143,365.304 27.134,365.948 27.130 C 367.246 27.121,367.156 27.389,367.117 23.674 C 367.092 21.204,367.028 20.294,366.866 20.133 C 366.521 19.788,356.773 19.822,356.426 20.169 C 356.257 20.338,356.141 20.915,356.073 21.919 C 355.954 23.689,356.041 23.558,354.993 23.544 C 354.307 23.535,354.156 23.584,354.178 23.808 C 354.193 23.960,354.196 24.402,354.186 24.792 L 354.167 25.500 353.167 25.500 L 352.167 25.500 352.167 26.417 C 352.167 27.173,352.116 27.336,351.875 27.348 C 351.715 27.356,351.321 27.374,351.000 27.389 C 350.422 27.416,350.416 27.423,350.393 28.218 C 350.364 29.180,350.393 29.145,349.573 29.211 C 349.211 29.240,348.810 29.328,348.681 29.408 C 348.530 29.501,348.487 29.490,348.558 29.375 C 348.631 29.256,348.434 29.227,347.958 29.286 C 347.146 29.387,346.676 29.845,346.670 30.542 C 346.667 30.965,346.615 31.000,346.000 31.000 C 345.556 31.000,345.222 31.111,345.000 31.333 C 344.646 31.688,344.630 31.609,344.630 29.500 C 344.630 29.317,344.638 28.679,344.648 28.083 L 344.667 27.000 345.208 26.997 C 346.142 26.993,346.555 26.137,346.495 24.333 C 346.482 23.921,346.477 22.702,346.485 21.625 L 346.500 19.667 347.230 19.667 C 348.226 19.667,348.364 19.444,348.328 17.885 C 348.312 17.169,348.306 16.002,348.316 15.292 L 348.333 14.000 349.250 14.000 L 350.167 14.000 350.167 11.250 L 350.167 8.500 350.833 8.500 C 352.014 8.500,352.158 8.196,352.152 5.713 C 352.145 2.936,352.170 3.002,351.151 3.025 C 350.129 3.048,350.157 3.079,350.143 1.938 C 350.134 1.122,350.090 1.000,349.806 1.000 C 349.590 1.000,349.522 1.070,349.605 1.208 C 349.704 1.372,349.678 1.374,349.483 1.217 C 349.168 0.962,341.235 0.922,341.079 1.174 M269.667 3.890 L 269.667 4.790 268.902 4.876 C 267.710 5.011,267.754 4.807,267.713 10.346 C 267.665 16.701,267.051 15.995,272.622 15.987 C 278.263 15.978,278.856 15.835,278.818 14.500 C 278.809 14.179,278.808 13.523,278.817 13.042 L 278.833 12.167 279.511 12.167 C 280.836 12.167,280.803 12.261,280.793 8.495 C 280.782 4.750,280.810 4.833,279.551 4.833 C 279.083 4.833,278.855 4.740,278.694 4.483 C 278.558 4.265,278.547 4.176,278.665 4.249 C 278.798 4.331,278.840 4.173,278.803 3.725 L 278.750 3.083 274.208 3.036 L 269.667 2.989 269.667 3.890 M229.384 14.441 C 229.275 14.485,229.206 14.610,229.232 14.719 C 229.258 14.828,229.246 14.857,229.206 14.785 C 229.167 14.712,229.010 14.748,228.859 14.865 C 228.668 15.013,228.680 14.964,228.901 14.705 C 229.075 14.501,229.300 14.339,229.401 14.346 C 229.515 14.355,229.509 14.390,229.384 14.441 M278.218 14.441 C 278.108 14.485,278.040 14.610,278.065 14.719 C 278.091 14.828,278.080 14.860,278.042 14.791 C 278.003 14.721,277.884 14.717,277.777 14.781 C 277.671 14.845,277.686 14.770,277.812 14.615 C 277.938 14.460,278.125 14.339,278.229 14.346 C 278.356 14.355,278.353 14.386,278.218 14.441 M290.413 21.886 C 290.375 21.994,290.323 22.419,290.297 22.830 C 290.250 23.571,290.246 23.577,289.519 23.700 C 288.623 23.852,288.703 23.762,288.500 24.835 C 288.369 25.522,288.379 25.759,288.540 25.862 C 288.705 25.967,288.706 25.995,288.543 25.997 C 288.415 25.999,288.346 26.207,288.363 26.542 C 288.378 26.840,288.377 27.552,288.362 28.125 L 288.333 29.167 287.604 29.167 C 286.615 29.167,286.465 29.398,286.504 30.867 C 286.561 32.998,286.561 33.000,286.022 33.000 C 285.241 33.000,284.667 33.574,284.667 34.355 C 284.667 34.756,284.733 34.979,284.833 34.917 C 284.925 34.860,285.000 34.926,285.000 35.064 C 285.000 35.201,284.925 35.360,284.833 35.417 C 284.742 35.473,284.667 36.190,284.667 37.010 L 284.667 38.500 284.000 38.500 C 282.918 38.500,282.645 38.909,282.683 40.466 C 282.701 41.172,282.705 42.294,282.691 42.958 L 282.667 44.167 282.073 44.167 C 281.747 44.167,281.522 44.235,281.574 44.318 C 281.625 44.401,281.522 44.431,281.344 44.384 C 280.949 44.281,280.795 44.910,280.846 46.417 C 280.865 46.967,280.870 47.998,280.857 48.708 L 280.833 50.000 280.187 50.000 C 279.048 50.000,279.083 49.757,279.083 57.567 L 279.083 64.583 283.389 64.624 C 288.547 64.672,288.377 64.721,288.324 63.195 C 288.303 62.583,288.297 61.390,288.310 60.542 L 288.333 59.000 289.077 59.000 C 290.093 59.000,290.182 58.776,290.150 56.294 C 290.136 55.170,290.134 53.631,290.145 52.875 L 290.167 51.500 290.648 51.500 C 291.801 51.500,291.956 50.986,291.991 47.042 C 291.999 46.062,292.023 46.000,292.392 46.000 C 293.523 46.000,293.857 45.695,293.831 44.688 C 293.817 44.172,293.812 43.394,293.820 42.958 L 293.833 42.167 294.633 42.167 C 295.619 42.167,295.833 41.967,295.833 41.050 C 295.833 40.484,295.895 40.330,296.125 40.319 C 296.285 40.311,296.679 40.292,297.000 40.277 C 297.578 40.250,297.584 40.243,297.607 39.448 C 297.636 38.481,297.613 38.507,298.474 38.457 C 298.855 38.435,299.168 38.342,299.169 38.250 C 299.171 38.158,299.227 38.170,299.295 38.277 C 299.724 38.951,301.319 37.981,301.328 37.042 L 301.333 36.500 302.232 36.500 C 303.238 36.500,303.333 36.398,303.333 35.320 C 303.333 34.919,303.414 34.659,303.542 34.646 C 303.656 34.635,304.050 34.616,304.417 34.605 L 305.083 34.583 305.090 33.799 C 305.099 32.789,305.000 32.841,306.972 32.809 C 308.779 32.780,309.052 32.666,308.995 31.967 C 308.917 31.028,308.944 31.000,309.917 31.000 C 310.534 31.000,310.836 31.068,310.843 31.208 C 310.863 31.658,310.870 35.989,310.852 37.208 L 310.833 38.500 310.250 38.500 C 309.260 38.500,308.979 38.948,309.017 40.466 C 309.069 42.568,309.092 42.500,308.354 42.500 C 307.998 42.500,307.633 42.594,307.543 42.708 C 307.327 42.982,307.152 44.362,307.349 44.240 C 307.432 44.189,307.500 44.268,307.500 44.417 C 307.500 44.565,307.422 44.638,307.327 44.579 C 307.213 44.509,307.164 44.781,307.184 45.361 C 307.201 45.850,307.204 46.644,307.191 47.125 L 307.167 48.000 306.255 48.000 L 305.344 48.000 305.297 49.875 L 305.250 51.750 304.638 51.801 C 303.807 51.870,302.748 53.993,303.540 54.003 C 303.699 54.004,303.696 54.039,303.527 54.147 C 303.404 54.224,303.318 54.505,303.336 54.769 C 303.354 55.034,303.361 56.169,303.351 57.292 L 303.333 59.333 302.792 59.336 C 301.858 59.340,301.750 59.510,301.750 60.980 C 301.750 62.501,301.748 62.498,302.645 62.618 L 303.318 62.708 303.367 63.646 L 303.417 64.583 307.774 64.631 C 313.017 64.688,312.667 64.836,312.667 62.571 C 312.667 61.033,312.675 61.000,313.058 61.000 C 314.189 61.000,314.524 60.695,314.497 59.688 C 314.484 59.172,314.479 57.981,314.486 57.042 L 314.500 55.333 315.167 55.333 C 316.252 55.333,316.532 54.917,316.490 53.363 C 316.440 51.491,316.438 51.501,316.958 51.495 C 317.804 51.485,318.732 49.857,318.116 49.465 C 317.974 49.375,317.989 49.337,318.167 49.333 C 318.389 49.329,318.389 49.310,318.167 49.167 C 317.981 49.047,317.974 49.004,318.138 49.003 C 318.290 49.001,318.350 48.782,318.330 48.292 C 318.315 47.902,318.309 47.237,318.318 46.814 L 318.333 46.044 319.020 45.952 C 320.002 45.820,320.081 45.675,320.105 43.950 C 320.161 40.047,320.126 40.333,320.558 40.333 C 320.774 40.333,321.186 40.251,321.475 40.150 L 322.000 39.967 322.000 31.913 L 322.000 23.859 321.404 23.663 C 321.076 23.554,320.607 23.495,320.361 23.531 C 319.941 23.593,319.918 23.562,319.968 23.007 C 320.088 21.695,320.415 21.750,312.472 21.750 L 305.417 21.750 305.366 22.625 L 305.316 23.500 303.608 23.500 C 301.622 23.500,301.509 23.566,301.476 24.742 C 301.454 25.542,301.448 25.553,301.351 24.961 C 301.217 24.138,300.790 23.667,300.178 23.667 C 299.569 23.667,299.450 23.483,299.432 22.514 L 299.417 21.750 294.949 21.719 C 291.630 21.696,290.464 21.739,290.413 21.886 M264.193 23.718 C 264.094 23.838,263.991 24.719,263.965 25.676 L 263.917 27.417 263.294 27.468 C 262.885 27.502,262.585 27.644,262.419 27.880 C 262.138 28.282,262.067 29.415,262.333 29.250 C 262.425 29.193,262.500 29.268,262.500 29.417 C 262.500 29.565,262.425 29.640,262.333 29.583 C 262.225 29.516,262.167 30.415,262.167 32.157 L 262.167 34.833 261.490 34.833 C 261.118 34.833,260.856 34.901,260.907 34.984 C 260.958 35.068,260.858 35.098,260.683 35.053 C 260.249 34.939,260.144 35.352,260.179 37.033 C 260.195 37.794,260.198 39.298,260.187 40.375 L 260.167 42.333 259.437 42.333 C 258.452 42.333,258.305 42.561,258.344 44.030 C 258.361 44.701,258.366 45.869,258.355 46.625 L 258.333 48.000 257.856 48.000 C 257.593 48.000,257.181 48.155,256.939 48.345 L 256.500 48.691 256.500 52.055 C 256.500 55.295,256.487 55.428,256.149 55.639 C 255.956 55.759,255.848 55.777,255.909 55.679 C 255.980 55.564,255.808 55.500,255.432 55.500 C 255.026 55.500,254.793 55.598,254.676 55.816 C 254.446 56.247,254.496 60.213,254.734 60.372 C 254.860 60.457,254.852 60.496,254.708 60.497 C 254.490 60.500,254.425 61.454,254.600 62.105 C 254.712 62.521,255.315 62.833,256.008 62.833 C 256.528 62.833,256.561 62.908,256.505 63.952 C 256.465 64.680,256.541 64.692,261.141 64.633 L 265.030 64.583 265.359 64.177 C 265.591 63.889,265.681 63.547,265.663 63.010 C 265.649 62.592,265.644 61.116,265.652 59.730 L 265.667 57.209 266.518 57.127 C 267.604 57.023,267.676 56.893,267.649 55.083 C 267.598 51.605,267.612 51.501,268.125 51.495 C 269.137 51.483,269.544 50.466,269.490 48.083 C 269.473 47.350,269.468 46.131,269.480 45.375 L 269.500 44.000 270.240 44.000 C 271.105 44.000,271.149 43.950,271.284 42.811 C 271.368 42.096,271.346 41.972,271.151 42.089 C 270.964 42.202,270.956 42.182,271.111 41.990 C 271.352 41.691,271.333 41.945,271.333 39.040 C 271.333 36.720,271.353 36.568,271.684 36.361 C 271.902 36.225,271.990 36.214,271.917 36.332 C 271.835 36.465,271.994 36.506,272.442 36.469 C 273.055 36.419,273.086 36.388,273.136 35.775 C 273.177 35.280,273.139 35.163,272.969 35.265 C 272.794 35.371,272.790 35.347,272.953 35.147 C 273.080 34.990,273.173 34.154,273.203 32.911 L 273.250 30.925 273.981 30.801 C 274.877 30.648,274.797 30.738,275.000 29.665 C 275.131 28.978,275.121 28.741,274.960 28.638 C 274.793 28.533,274.793 28.505,274.958 28.503 C 275.073 28.501,275.167 28.394,275.167 28.264 C 275.167 28.134,275.073 27.990,274.958 27.944 C 274.792 27.876,274.792 27.857,274.958 27.846 C 275.073 27.839,275.167 27.754,275.167 27.657 C 275.167 27.560,275.073 27.537,274.958 27.605 C 274.793 27.705,274.792 27.678,274.954 27.478 C 275.116 27.279,275.116 27.179,274.954 27.005 C 274.793 26.830,274.793 26.809,274.958 26.902 C 275.073 26.967,275.167 26.946,275.167 26.857 C 275.167 26.768,275.073 26.657,274.958 26.610 C 274.792 26.543,274.792 26.524,274.958 26.513 C 275.073 26.506,275.167 26.387,275.167 26.250 C 275.167 26.113,275.073 25.999,274.958 25.997 C 274.793 25.995,274.793 25.967,274.960 25.862 C 275.146 25.744,274.994 24.105,274.777 23.888 C 274.577 23.689,273.071 23.551,272.962 23.722 C 272.870 23.867,272.838 23.867,272.836 23.725 C 272.832 23.429,264.438 23.422,264.193 23.718 M344.598 32.958 C 344.545 33.011,344.165 33.041,343.754 33.026 C 342.940 32.995,342.914 33.030,342.780 34.333 C 342.747 34.658,342.708 34.456,342.693 33.875 L 342.667 32.833 343.333 32.833 C 343.751 32.833,344.109 32.723,344.292 32.538 C 344.571 32.255,344.586 32.256,344.638 32.552 C 344.669 32.723,344.650 32.905,344.598 32.958 M349.521 52.115 C 349.647 52.270,349.663 52.345,349.556 52.281 C 349.449 52.217,349.330 52.221,349.292 52.291 C 349.253 52.360,349.242 52.328,349.268 52.219 C 349.294 52.110,349.225 51.985,349.116 51.941 C 348.981 51.886,348.977 51.855,349.105 51.846 C 349.208 51.839,349.395 51.960,349.521 52.115 " stroke="none" fill="#2394f2" fill-rule="evenodd"></path><path id="path1" d="M70.500 0.500 L 70.500 1.000 66.950 1.000 C 62.950 1.000,63.000 0.985,63.000 2.200 L 63.000 3.000 60.167 3.000 L 57.333 3.000 57.333 2.200 C 57.333 0.967,57.464 1.000,52.568 1.000 C 47.682 1.000,48.000 0.912,48.000 2.264 L 48.000 3.000 47.083 3.000 L 46.167 3.000 46.167 4.833 L 46.167 6.667 45.489 6.667 C 44.238 6.667,44.167 6.779,44.167 8.756 L 44.167 10.500 43.443 10.500 C 42.434 10.500,42.333 10.795,42.333 13.736 L 42.333 16.123 41.653 16.214 C 40.604 16.355,40.525 16.672,40.510 20.792 L 40.500 23.500 39.865 23.500 C 38.714 23.500,38.677 23.591,38.628 26.583 L 38.583 29.250 37.971 29.301 C 36.879 29.392,36.767 29.757,36.695 33.439 L 36.632 36.627 35.891 36.711 C 34.882 36.825,34.923 36.704,34.864 39.680 L 34.810 42.333 34.167 42.333 C 33.068 42.333,33.000 42.513,33.000 45.420 L 33.000 47.983 32.125 48.033 L 31.250 48.083 31.205 51.792 L 31.160 55.500 30.350 55.500 C 29.248 55.500,29.120 55.829,29.194 58.478 C 29.257 60.741,29.302 60.833,30.402 60.957 L 31.167 61.043 31.167 62.752 C 31.167 64.886,30.059 64.662,40.611 64.664 C 50.493 64.667,49.833 64.739,49.833 63.653 L 49.833 62.842 52.542 62.796 L 55.250 62.750 55.300 61.875 L 55.351 61.000 57.975 61.000 C 60.957 61.000,61.000 60.983,61.000 59.805 L 61.000 59.011 62.875 58.964 L 64.750 58.917 64.800 58.042 L 64.851 57.167 66.412 57.167 C 68.458 57.167,68.500 57.146,68.500 56.157 L 68.500 55.350 69.458 55.300 L 70.417 55.250 70.467 54.383 L 70.517 53.517 71.383 53.467 L 72.250 53.417 72.295 49.938 C 72.327 47.512,72.283 46.390,72.150 46.230 C 71.997 46.046,71.131 46.000,67.813 46.000 C 63.075 46.000,63.000 46.021,63.000 47.333 L 63.000 48.000 61.167 48.000 L 59.333 48.000 59.333 48.901 L 59.333 49.803 57.577 49.860 C 55.620 49.923,55.507 49.988,55.503 51.042 L 55.500 51.667 53.930 51.667 C 51.872 51.667,51.833 51.685,51.833 52.684 L 51.833 53.500 49.042 53.507 C 44.977 53.518,44.545 53.647,44.333 54.917 C 44.253 55.397,44.213 55.419,43.292 55.467 L 42.333 55.517 42.333 53.508 L 42.333 51.500 42.792 51.495 C 43.925 51.482,44.157 50.684,44.163 46.792 L 44.167 44.000 44.630 44.000 C 45.351 44.000,45.806 43.585,45.865 42.872 L 45.917 42.250 48.250 42.152 C 51.196 42.027,51.281 42.000,51.455 41.116 L 51.593 40.417 53.088 40.375 C 55.335 40.312,55.333 40.313,55.333 39.330 L 55.333 38.500 57.149 38.500 C 59.186 38.500,59.167 38.512,59.167 37.236 L 59.167 36.500 61.817 36.500 L 64.467 36.500 64.650 35.975 C 64.751 35.686,64.833 35.284,64.833 35.081 C 64.833 34.721,64.891 34.711,67.262 34.630 C 69.939 34.539,70.112 34.474,70.315 33.477 L 70.430 32.917 72.167 32.869 C 74.102 32.815,74.160 32.782,74.164 31.708 L 74.167 31.000 75.083 31.000 L 76.000 31.000 76.000 30.008 L 76.000 29.017 76.958 28.967 L 77.917 28.917 77.963 26.399 C 77.999 24.406,77.960 23.841,77.776 23.688 C 77.608 23.549,76.068 23.507,72.230 23.539 L 66.917 23.583 66.867 24.542 L 66.817 25.500 63.275 25.500 C 59.320 25.500,59.333 25.496,59.333 26.617 L 59.333 27.333 56.700 27.333 C 53.737 27.333,53.667 27.359,53.667 28.450 L 53.667 29.167 51.750 29.167 L 49.833 29.167 49.833 27.250 L 49.833 25.333 50.417 25.333 C 51.541 25.333,51.667 25.015,51.667 22.167 L 51.667 19.667 52.383 19.667 C 53.413 19.667,53.500 19.508,53.500 17.633 L 53.500 16.000 54.417 16.000 L 55.333 16.000 55.333 15.000 L 55.333 14.000 57.713 14.000 C 60.464 14.000,60.781 13.887,60.865 12.872 L 60.917 12.250 63.572 12.204 C 66.559 12.152,66.667 12.112,66.667 11.063 L 66.667 10.333 69.458 10.329 C 73.392 10.324,73.992 10.154,73.997 9.044 L 74.000 8.505 78.708 8.461 L 83.417 8.417 83.467 7.458 L 83.517 6.500 85.425 6.500 L 87.333 6.500 87.333 5.583 L 87.333 4.667 87.986 4.667 C 89.155 4.667,89.167 4.648,89.167 2.833 C 89.167 1.018,89.155 1.000,87.986 1.000 C 87.372 1.000,87.333 0.970,87.333 0.500 L 87.333 0.000 78.917 0.000 L 70.500 0.000 70.500 0.500 M140.208 21.777 C 140.082 21.828,140.000 22.180,140.000 22.675 L 140.000 23.489 138.208 23.536 L 136.417 23.583 136.367 24.542 L 136.317 25.500 134.511 25.500 C 132.504 25.500,132.508 25.498,132.502 26.792 C 132.500 27.318,132.480 27.333,131.783 27.333 C 130.885 27.333,130.667 27.550,130.667 28.441 L 130.667 29.149 129.792 29.200 L 128.917 29.250 128.866 30.125 L 128.816 31.000 128.158 31.000 C 126.821 31.000,126.833 30.948,126.837 36.875 C 126.843 43.433,126.955 43.982,128.292 43.995 C 128.789 44.000,128.834 44.044,128.839 44.542 C 128.849 45.594,129.583 45.976,131.625 45.993 L 132.500 46.000 132.500 46.717 C 132.500 47.754,132.651 47.833,134.617 47.833 L 136.333 47.833 136.333 48.315 C 136.333 49.240,136.745 49.491,138.458 49.610 C 139.904 49.710,140.000 49.740,140.000 50.083 C 140.000 51.071,140.318 51.480,141.138 51.545 C 141.681 51.588,141.531 51.616,140.646 51.637 C 138.480 51.688,138.357 51.741,138.232 52.687 L 138.124 53.500 135.413 53.500 C 132.377 53.500,132.500 53.447,132.500 54.764 L 132.500 55.500 130.605 55.500 L 128.710 55.500 128.624 54.736 C 128.501 53.646,128.394 53.591,126.290 53.526 C 123.607 53.443,123.167 53.605,123.167 54.673 L 123.167 55.500 122.421 55.500 C 121.209 55.500,121.113 55.776,121.197 59.042 C 121.290 62.639,121.277 62.620,123.617 62.785 L 124.984 62.882 125.034 63.733 L 125.083 64.583 132.140 64.583 L 139.196 64.583 139.515 64.190 C 139.690 63.973,139.833 63.580,139.833 63.315 L 139.833 62.833 141.550 62.833 C 143.516 62.833,143.667 62.754,143.667 61.717 L 143.667 61.000 145.075 61.000 C 147.097 61.000,147.491 60.749,147.498 59.458 C 147.500 59.021,147.538 59.000,148.316 59.000 C 149.226 59.000,149.333 58.878,149.333 57.841 C 149.333 57.210,149.334 57.210,150.157 57.100 C 151.089 56.977,151.121 56.896,151.210 54.507 L 151.250 53.430 151.900 53.296 C 152.956 53.077,152.989 52.962,152.995 49.393 C 153.001 45.850,153.052 46.000,151.839 46.000 L 151.205 46.000 151.139 44.342 C 151.058 42.323,151.177 42.442,149.158 42.361 L 147.500 42.295 147.500 41.661 C 147.500 40.503,147.495 40.500,145.503 40.500 L 143.709 40.500 143.629 39.663 C 143.523 38.564,143.574 38.592,141.570 38.526 L 139.833 38.470 139.830 38.026 C 139.824 37.368,139.344 36.862,138.667 36.802 L 138.083 36.750 138.034 35.708 L 137.984 34.667 139.709 34.667 C 141.681 34.667,141.833 34.587,141.833 33.556 L 141.833 32.845 143.625 32.797 L 145.417 32.750 145.467 31.875 L 145.517 31.000 146.509 31.000 L 147.500 31.000 147.500 31.730 C 147.500 32.607,147.692 32.794,148.664 32.864 C 149.356 32.913,149.412 32.953,149.518 33.477 C 149.713 34.437,149.919 34.525,152.199 34.623 C 154.781 34.734,155.000 34.648,155.000 33.516 L 155.000 32.711 155.680 32.619 C 156.736 32.478,156.874 31.818,156.801 27.250 C 156.745 23.688,156.745 23.690,155.687 23.548 C 155.002 23.456,155.000 23.454,155.000 22.734 C 155.000 22.190,154.920 21.969,154.678 21.839 C 154.351 21.664,140.633 21.606,140.208 21.777 M166.444 21.778 C 166.383 21.839,166.333 22.251,166.333 22.694 L 166.333 23.500 165.625 23.503 C 164.475 23.507,164.511 23.384,164.462 27.420 L 164.417 31.074 163.685 31.199 C 162.567 31.390,162.500 31.759,162.500 37.751 L 162.500 42.290 161.687 42.398 C 160.652 42.535,160.666 42.472,160.669 47.146 C 160.672 51.631,160.641 51.500,161.686 51.500 L 162.500 51.500 162.500 53.217 C 162.500 55.206,162.572 55.333,163.700 55.333 L 164.500 55.333 164.500 56.250 L 164.500 57.167 165.408 57.167 L 166.316 57.167 166.366 58.042 L 166.417 58.917 171.917 58.917 L 177.417 58.917 177.467 58.042 L 177.517 57.167 178.967 57.164 C 181.078 57.161,181.139 57.133,181.211 56.108 L 181.272 55.250 181.303 56.283 L 181.333 57.316 180.458 57.366 L 179.583 57.417 179.500 58.333 L 179.417 59.250 178.805 59.301 C 177.940 59.373,177.672 59.863,177.550 61.591 L 177.450 63.000 176.559 63.000 L 175.667 63.000 175.667 63.908 L 175.667 64.816 174.792 64.866 L 173.917 64.917 173.866 65.792 L 173.816 66.667 172.908 66.667 L 172.000 66.667 172.000 67.568 L 172.000 68.469 170.341 68.526 C 168.457 68.591,168.330 68.663,168.209 69.736 L 168.123 70.500 166.751 70.500 C 165.093 70.500,164.500 70.826,164.500 71.739 L 164.500 72.288 161.990 72.369 C 159.075 72.462,159.083 72.458,158.916 73.958 L 158.801 75.000 169.067 75.000 L 179.333 75.000 179.333 74.500 C 179.333 74.005,179.343 74.000,180.250 74.000 L 181.167 74.000 181.167 73.108 L 181.167 72.217 182.644 72.112 C 184.779 71.960,185.000 71.699,185.000 69.334 L 185.000 68.517 185.875 68.467 L 186.750 68.417 186.800 67.458 L 186.850 66.500 187.758 66.500 L 188.667 66.500 188.667 64.667 L 188.667 62.833 189.467 62.833 C 190.594 62.833,190.667 62.705,190.667 60.725 L 190.667 59.017 191.542 58.967 L 192.417 58.917 192.464 57.146 L 192.511 55.376 193.192 55.284 C 194.223 55.146,194.244 55.087,194.303 52.242 L 194.357 49.667 194.887 49.664 C 196.220 49.659,196.167 49.782,196.167 46.731 L 196.167 44.000 196.994 44.000 C 198.110 44.000,198.167 43.852,198.167 40.949 L 198.167 38.543 198.925 38.458 C 199.953 38.342,199.906 38.473,200.000 35.452 L 200.083 32.764 200.734 32.629 C 201.817 32.405,201.822 32.381,201.828 27.809 C 201.834 23.242,201.904 23.500,200.662 23.500 L 200.017 23.500 199.967 22.625 L 199.917 21.750 195.520 21.706 C 190.270 21.652,190.667 21.484,190.667 23.770 L 190.667 25.500 190.198 25.500 C 189.723 25.500,189.016 26.012,188.980 26.381 C 188.969 26.493,188.913 27.594,188.855 28.829 L 188.750 31.074 188.057 31.210 C 187.168 31.385,187.146 31.452,187.042 34.284 L 186.955 36.651 186.102 36.700 L 185.250 36.750 185.200 37.604 L 185.151 38.458 184.394 38.544 C 183.331 38.664,183.258 38.793,183.193 40.666 L 183.136 42.317 182.276 42.367 L 181.417 42.417 181.366 43.292 L 181.316 44.167 180.408 44.167 L 179.500 44.167 179.500 45.068 L 179.500 45.969 177.841 46.026 C 175.959 46.091,175.830 46.164,175.710 47.228 L 175.625 47.984 174.771 48.034 L 173.917 48.083 173.819 49.000 L 173.721 49.917 173.694 48.958 L 173.667 48.000 172.750 48.000 L 171.833 48.000 171.833 45.083 L 171.833 42.167 172.375 42.164 C 173.750 42.159,173.667 42.406,173.667 38.335 L 173.667 34.709 174.518 34.627 C 175.647 34.519,175.661 34.479,175.664 31.542 L 175.667 29.000 176.400 29.000 C 177.471 29.000,177.824 27.420,177.332 24.827 C 177.130 23.763,177.187 23.827,176.347 23.714 L 175.667 23.623 175.667 22.746 C 175.667 22.100,175.597 21.842,175.403 21.768 C 175.043 21.630,166.583 21.639,166.444 21.778 M98.867 23.700 C 98.757 23.810,98.667 24.260,98.667 24.700 L 98.667 25.500 97.033 25.500 C 95.158 25.500,95.000 25.587,95.000 26.617 L 95.000 27.333 94.322 27.333 C 93.266 27.333,93.000 27.553,93.000 28.423 L 93.000 29.167 92.347 29.167 C 91.287 29.167,91.167 29.270,91.167 30.184 L 91.167 31.000 90.351 31.000 C 89.426 31.000,89.333 31.114,89.333 32.255 L 89.333 32.983 88.458 33.033 L 87.583 33.083 87.500 34.000 C 87.425 34.828,87.376 34.921,87.000 34.963 C 85.936 35.083,85.867 35.137,85.681 36.008 C 85.581 36.471,85.500 37.211,85.500 37.653 L 85.500 38.456 84.813 38.548 C 83.835 38.679,83.760 38.821,83.667 40.717 L 83.583 42.417 82.971 42.468 C 81.972 42.551,81.937 42.673,81.839 46.477 L 81.750 49.917 81.128 49.968 C 80.134 50.051,80.000 50.393,80.000 52.854 L 80.000 54.967 80.525 55.150 C 80.814 55.251,81.226 55.333,81.442 55.333 C 81.829 55.333,81.833 55.353,81.833 57.167 L 81.833 59.000 82.742 59.000 L 83.650 59.000 83.700 59.958 L 83.750 60.917 84.625 60.967 L 85.500 61.017 85.500 61.738 C 85.500 62.868,85.362 62.843,91.270 62.794 L 96.583 62.750 96.634 61.875 L 96.684 61.000 98.259 61.000 C 100.127 61.000,100.500 60.779,100.500 59.675 L 100.500 59.017 101.375 58.967 L 102.250 58.917 102.333 58.000 C 102.379 57.496,102.454 58.771,102.500 60.833 L 102.583 64.583 107.125 64.628 L 111.667 64.672 111.667 63.753 L 111.667 62.833 112.467 62.833 C 113.701 62.833,113.667 62.972,113.667 57.988 L 113.667 53.543 114.425 53.458 C 115.466 53.341,115.411 53.545,115.468 49.570 L 115.518 46.000 116.103 46.000 C 117.359 46.000,117.333 46.081,117.333 42.077 L 117.333 38.500 117.928 38.500 C 119.156 38.500,119.167 38.473,119.167 35.489 C 119.167 33.502,119.220 32.806,119.375 32.758 C 119.490 32.722,119.856 32.647,120.190 32.592 C 120.985 32.461,121.017 32.335,121.120 28.982 C 121.222 25.634,121.179 25.500,119.994 25.500 L 119.167 25.500 119.167 24.500 L 119.167 23.500 109.117 23.500 C 101.522 23.500,99.018 23.549,98.867 23.700 M108.167 35.667 L 108.167 38.500 107.367 38.500 C 106.240 38.500,106.167 38.628,106.167 40.608 L 106.167 42.316 105.292 42.366 L 104.417 42.417 104.367 43.283 L 104.316 44.150 103.450 44.200 L 102.583 44.250 102.533 45.117 L 102.483 45.983 101.617 46.033 L 100.750 46.083 100.700 47.042 L 100.650 48.000 99.658 48.000 L 98.667 48.000 98.667 48.892 L 98.667 49.783 97.125 49.890 C 95.412 50.009,95.000 50.260,95.000 51.185 C 95.000 51.643,94.964 51.667,94.264 51.667 C 93.113 51.667,93.000 51.758,93.000 52.684 L 93.000 53.500 92.000 53.500 L 91.000 53.500 91.000 50.667 L 91.000 47.833 91.800 47.833 C 92.927 47.833,93.000 47.705,93.000 45.725 L 93.000 44.017 93.875 43.967 L 94.750 43.917 94.800 43.042 C 94.850 42.180,94.859 42.167,95.384 42.164 C 96.514 42.160,96.667 42.038,96.667 41.147 L 96.667 40.333 97.333 40.333 C 98.187 40.333,98.667 39.884,98.667 39.083 C 98.667 38.507,98.675 38.500,99.383 38.500 C 100.299 38.500,100.500 38.285,100.500 37.309 L 100.500 36.517 101.375 36.467 L 102.250 36.417 102.300 35.553 L 102.350 34.690 104.917 34.637 C 107.755 34.578,107.813 34.556,107.952 33.520 C 108.117 32.289,108.167 32.786,108.167 35.667 " stroke="none" fill="#040404" fill-rule="evenodd"></path><path id="path2" d="M228.901 14.705 C 228.680 14.964,228.668 15.013,228.859 14.865 C 229.010 14.748,229.167 14.712,229.206 14.785 C 229.246 14.857,229.258 14.828,229.232 14.719 C 229.206 14.610,229.275 14.485,229.384 14.441 C 229.509 14.390,229.515 14.355,229.401 14.346 C 229.300 14.339,229.075 14.501,228.901 14.705 M277.812 14.615 C 277.686 14.770,277.671 14.845,277.777 14.781 C 277.884 14.717,278.003 14.721,278.042 14.791 C 278.080 14.860,278.091 14.828,278.065 14.719 C 278.040 14.610,278.108 14.485,278.218 14.441 C 278.353 14.386,278.356 14.355,278.229 14.346 C 278.125 14.339,277.938 14.460,277.812 14.615 M349.116 51.941 C 349.225 51.985,349.294 52.110,349.268 52.219 C 349.242 52.328,349.253 52.360,349.292 52.291 C 349.330 52.221,349.449 52.217,349.556 52.281 C 349.663 52.345,349.647 52.270,349.521 52.115 C 349.395 51.960,349.208 51.839,349.105 51.846 C 348.977 51.855,348.981 51.886,349.116 51.941 " stroke="none" fill="#1498bc" fill-rule="evenodd"></path><path id="path3" d="" stroke="none" fill="#145040" fill-rule="evenodd"></path><path id="path4" d="" stroke="none" fill="#140444" fill-rule="evenodd"></path></g></svg>